HIERARCHY
ROOT Hips
{
	OFFSET 0.000000 0.000000 0.000000
	CHANNELS 6 Xposition Yposition Zposition Xrotation Yrotation Zrotation
	JOINT Spine
	{
		OFFSET 0.000000 0.000000 -0.744707
		CHANNELS 6 Xposition Yposition Zposition Xrotation Yrotation Zrotation
		JOINT Spine1
		{
			OFFSET 0.000000 0.000000 -2.032240
			CHANNELS 6 Xposition Yposition Zposition Xrotation Yrotation Zrotation
			JOINT Neck
			{
				OFFSET 0.000000 0.000000 -2.213880
				CHANNELS 6 Xposition Yposition Zposition Xrotation Yrotation Zrotation
				JOINT Head
				{
					OFFSET 0.000000 0.181636 -1.407680
					CHANNELS 6 Xposition Yposition Zposition Xrotation Yrotation Zrotation
					End Site
					{
						OFFSET 0.000000 0.000000 -1.816356
					}
				}
			}
			JOINT LeftShoulder
			{
				OFFSET 0.365767 -0.048012 -1.787590
				CHANNELS 6 Xposition Yposition Zposition Xrotation Yrotation Zrotation
				JOINT LeftArm
				{
					OFFSET 1.305160 0.000000 0.000000
					CHANNELS 6 Xposition Yposition Zposition Xrotation Yrotation Zrotation
					JOINT LeftForeArm
					{
						OFFSET 2.559210 0.000000 0.000000
						CHANNELS 6 Xposition Yposition Zposition Xrotation Yrotation Zrotation
						JOINT LeftHand
						{
							OFFSET 2.378450 0.000000 0.000000
							CHANNELS 6 Xposition Yposition Zposition Xrotation Yrotation Zrotation
							End Site
							{
								OFFSET 1.362267 0.000000 0.000000
							}
						}
					}
				}
			}
			JOINT RightShoulder
			{
				OFFSET -0.360721 -0.048012 -1.787590
				CHANNELS 6 Xposition Yposition Zposition Xrotation Yrotation Zrotation
				JOINT RightArm
				{
					OFFSET -1.305160 0.000000 0.000000
					CHANNELS 6 Xposition Yposition Zposition Xrotation Yrotation Zrotation
					JOINT RightForeArm
					{
						OFFSET -2.559210 0.000000 0.000000
						CHANNELS 6 Xposition Yposition Zposition Xrotation Yrotation Zrotation
						JOINT RightHand
						{
							OFFSET -2.378450 0.000000 0.000000
							CHANNELS 6 Xposition Yposition Zposition Xrotation Yrotation Zrotation
							End Site
							{
								OFFSET -1.362267 0.000000 0.000000
							}
						}
					}
				}
			}
		}
	}
	JOINT LeftUpLeg
	{
		OFFSET 0.908180 0.000000 0.000000
		CHANNELS 6 Xposition Yposition Zposition Xrotation Yrotation Zrotation
		JOINT LeftLeg
		{
			OFFSET 0.000000 -0.000003 3.819490
			CHANNELS 6 Xposition Yposition Zposition Xrotation Yrotation Zrotation
			JOINT LeftFoot
			{
				OFFSET 0.000000 -0.000003 4.004300
				CHANNELS 6 Xposition Yposition Zposition Xrotation Yrotation Zrotation
				JOINT LeftToeBase
				{
					OFFSET 0.000000 1.362270 0.590317
					CHANNELS 6 Xposition Yposition Zposition Xrotation Yrotation Zrotation
					End Site
					{
						OFFSET 0.000000 0.363271 0.000000
					}
				}
			}
		}
	}
	JOINT RightUpLeg
	{
		OFFSET -0.908180 0.000000 0.000000
		CHANNELS 6 Xposition Yposition Zposition Xrotation Yrotation Zrotation
		JOINT RightLeg
		{
			OFFSET 0.000000 -0.000003 3.819490
			CHANNELS 6 Xposition Yposition Zposition Xrotation Yrotation Zrotation
			JOINT RightFoot
			{
				OFFSET 0.000000 -0.000003 4.004300
				CHANNELS 6 Xposition Yposition Zposition Xrotation Yrotation Zrotation
				JOINT RightToeBase
				{
					OFFSET 0.000000 1.362270 0.590317
					CHANNELS 6 Xposition Yposition Zposition Xrotation Yrotation Zrotation
					End Site
					{
						OFFSET 0.000000 0.363271 0.000000
					}
				}
			}
		}
	}
}
MOTION
Frames: 8
Frame Time: 0.016667
-1.172897 1.838407 -7.610187 9.129769 1.334756 0.186466 -0.000000 -0.000000 -0.744706 -17.676700 -4.524363 2.131404 0.000000 0.000003 -2.032241 5.982485 12.252972 0.310905 0.000000 0.000001 -2.213884 12.503312 0.771148 -3.368105 0.000000 0.181636 -1.407679 1.182556 -7.501525 -4.384208 0.365767 -0.048012 -1.787591 -8.708436 21.120693 0.351741 1.305162 -0.000000 -0.000003 -9.338626 -3.699790 12.304208 2.559211 -0.000000 0.000001 -5.888803 -2.160344 -0.663891 2.378450 0.000001 0.000001 -6.562530 -3.909936 -19.912793 -0.360721 -0.048011 -1.787591 1.138390 -16.813375 5.808775 -1.305160 -0.000000 -0.000002 37.556949 -0.076284 -26.526156 -2.559210 0.000001 0.000001 -31.864868 -29.698414 -91.841592 -2.378452 -0.000000 -0.000000 5.670131 -47.273788 15.679918 0.908180 -0.000000 0.000001 -18.592470 17.102818 -10.317843 -0.000000 -0.000002 3.819490 22.649783 -1.945893 -3.698980 -0.000000 -0.000003 4.004301 -1.936668 -8.597601 -18.257330 -0.000000 1.362270 0.590317 0.000004 0.000003 0.000008 -0.908180 -0.000000 0.000001 -23.918416 -21.045826 -3.554644 0.000001 -0.000003 3.819489 30.901961 10.347588 -19.559927 0.000001 -0.000002 4.004301 -15.812619 4.494031 49.319802 -0.000000 1.362269 0.590315 0.000006 -0.000004 0.000006 
-1.173770 1.838430 -7.610147 9.129061 1.327308 0.194848 0.000000 -0.000000 -0.744704 -17.684553 -4.517608 2.126792 -0.000000 0.000002 -2.032236 5.987625 12.256064 0.308505 0.000000 0.000000 -2.213880 12.520246 0.786251 -3.421897 -0.000000 0.181637 -1.407682 1.125227 -7.508664 -4.444589 0.365767 -0.048011 -1.787588 -8.715948 21.109980 0.359044 1.305162 -0.000000 -0.000001 -9.345998 -3.695762 12.298548 2.559210 -0.000002 0.000000 -5.893535 -2.174091 -0.670374 2.378452 -0.000000 0.000002 -6.558497 -3.859812 -19.920296 -0.360721 -0.048011 -1.787587 1.136482 -16.818554 5.800818 -1.305161 -0.000000 0.000003 37.618326 -0.094142 -26.502172 -2.559211 0.000001 0.000000 -31.948992 -29.723064 -91.865785 -2.378449 0.000001 0.000002 5.592040 -47.285505 15.604317 0.908180 -0.000000 0.000001 -18.584448 17.112848 -10.295287 -0.000000 -0.000002 3.819489 22.640749 -1.948573 -3.721866 -0.000001 -0.000001 4.004302 -1.941083 -8.643641 -18.266933 -0.000000 1.362270 0.590317 -0.000000 0.000000 0.000001 -0.908180 -0.000000 0.000002 -23.915037 -21.029929 -3.544269 0.000001 -0.000003 3.819489 30.894701 10.343430 -19.542908 0.000002 -0.000001 4.004301 -15.807853 4.488259 49.295026 -0.000000 1.362270 0.590316 0.000004 0.000001 0.000002 
-1.174628 1.838608 -7.609982 9.121936 1.327092 0.194869 -0.000000 -0.000000 -0.744707 -17.680156 -4.519382 2.126719 0.000000 0.000000 -2.032241 5.984140 12.259067 0.308752 -0.000000 0.000000 -2.213879 12.517703 0.794724 -3.482899 -0.000000 0.181637 -1.407684 1.099123 -7.493735 -4.507681 0.365767 -0.048012 -1.787591 -8.723364 21.095092 0.362849 1.305161 -0.000000 -0.000003 -9.319285 -3.683572 12.296044 2.559211 -0.000001 -0.000004 -5.901174 -2.180616 -0.671081 2.378449 0.000000 0.000002 -6.565705 -3.856584 -19.925559 -0.360722 -0.048012 -1.787589 1.150516 -16.822411 5.810780 -1.305161 -0.000000 -0.000002 37.613268 -0.106741 -26.494333 -2.559210 0.000001 0.000002 -31.966812 -29.715626 -91.881023 -2.378450 0.000001 0.000000 5.594275 -47.291482 15.646915 0.908180 -0.000000 -0.000000 -18.574527 17.114050 -10.273879 -0.000000 -0.000002 3.819490 22.633029 -1.946986 -3.706662 -0.000001 -0.000002 4.004299 -1.935136 -8.606756 -18.295702 -0.000000 1.362270 0.590317 -0.000001 -0.000001 0.000006 -0.908180 -0.000000 -0.000001 -23.907515 -21.026802 -3.518888 -0.000001 -0.000003 3.819489 30.904011 10.332689 -19.583430 0.000001 -0.000001 4.004298 -15.802635 4.455790 49.297570 -0.000000 1.362270 0.590317 0.000005 0.000001 0.000007 
-1.175332 1.838418 -7.609899 9.121392 1.318121 0.205673 0.000000 0.000000 -0.744708 -17.684687 -4.505982 2.122062 0.000000 0.000000 -2.032238 5.989008 12.258281 0.306171 -0.000000 0.000000 -2.213878 12.518861 0.801989 -3.535875 0.000000 0.181636 -1.407676 1.065388 -7.483976 -4.563554 0.365767 -0.048012 -1.787590 -8.729045 21.098840 0.357659 1.305160 0.000000 0.000001 -9.290526 -3.696849 12.297056 2.559212 -0.000001 -0.000002 -5.910727 -2.175485 -0.666616 2.378449 0.000000 0.000002 -6.576244 -3.859156 -19.937713 -0.360721 -0.048012 -1.787588 1.145063 -16.837475 5.805090 -1.305161 0.000001 -0.000000 37.599819 -0.090940 -26.485734 -2.559209 -0.000001 -0.000001 -31.951980 -29.705948 -91.890660 -2.378450 0.000000 0.000002 5.617725 -47.292824 15.677354 0.908180 -0.000000 0.000000 -18.567685 17.120899 -10.234532 -0.000000 -0.000002 3.819490 22.619534 -1.948276 -3.748087 -0.000000 -0.000002 4.004301 -1.936723 -8.611736 -18.300725 0.000000 1.362270 0.590317 0.000003 0.000002 -0.000005 -0.908180 -0.000000 -0.000001 -23.922574 -21.010109 -3.521383 0.000001 -0.000002 3.819490 30.925918 10.332921 -19.613737 0.000001 -0.000001 4.004301 -15.810706 4.459072 49.320926 0.000000 1.362268 0.590317 0.000000 0.000000 0.000010 
-1.176150 1.838444 -7.609684 9.113427 1.321566 0.204689 0.000000 0.000000 -0.744707 -17.683455 -4.512008 2.118782 -0.000000 0.000001 -2.032236 5.992505 12.258660 0.305013 0.000000 0.000000 -2.213879 12.532695 0.816193 -3.579517 -0.000000 0.181636 -1.407679 1.016851 -7.482794 -4.611886 0.365767 -0.048012 -1.787588 -8.720121 21.093385 0.350091 1.305162 0.000000 -0.000003 -9.308472 -3.697362 12.309459 2.559210 0.000000 -0.000001 -5.901668 -2.178361 -0.678231 2.378448 0.000001 0.000002 -6.565695 -3.853942 -19.927586 -0.360721 -0.048012 -1.787589 1.140806 -16.847782 5.798001 -1.305160 0.000001 -0.000000 37.577310 -0.063985 -26.468286 -2.559211 0.000001 0.000004 -31.930858 -29.707488 -91.904498 -2.378449 0.000000 0.000002 5.650809 -47.245255 15.702210 0.908180 0.000000 0.000001 -18.562564 17.100856 -10.296352 -0.000000 -0.000002 3.819490 22.616505 -1.882626 -3.764338 -0.000001 -0.000002 4.004300 -1.922376 -8.636526 -18.236009 -0.000000 1.362270 0.590316 -0.000002 -0.000000 0.000000 -0.908180 0.000000 -0.000000 -23.925420 -21.013562 -3.506299 0.000000 -0.000001 3.819489 30.949295 10.334194 -19.614946 0.000000 -0.000001 4.004302 -15.822627 4.456229 49.306097 -0.000001 1.362269 0.590315 0.000004 0.000000 0.000000 
-1.176778 1.838491 -7.609550 9.106072 1.319385 0.210696 0.000000 0.000000 -0.744707 -17.684569 -4.508222 2.113880 0.000000 0.000001 -2.032238 6.000176 12.255706 0.302540 -0.000000 0.000001 -2.213882 12.523979 0.838727 -3.615477 0.000001 0.181636 -1.407682 1.006894 -7.491776 -4.651224 0.365767 -0.048012 -1.787593 -8.735544 21.104555 0.354326 1.305161 0.000000 0.000000 -9.317652 -3.717397 12.306919 2.559211 0.000000 0.000000 -5.876021 -2.181638 -0.682816 2.378453 -0.000000 0.000003 -6.541835 -3.865918 -19.921637 -0.360721 -0.048012 -1.787591 1.136130 -16.853589 5.788698 -1.305160 0.000001 -0.000003 37.594334 -0.058362 -26.452638 -2.559210 -0.000001 -0.000002 -31.955576 -29.712409 -91.914689 -2.378449 -0.000000 -0.000001 5.659620 -47.275943 15.743533 0.908180 0.000000 -0.000001 -18.550440 17.105843 -10.310452 0.000000 -0.000002 3.819490 22.616097 -1.874079 -3.704117 -0.000001 -0.000002 4.004301 -1.942787 -8.682126 -18.294556 -0.000000 1.362270 0.590316 0.000005 0.000001 0.000004 -0.908180 0.000000 -0.000001 -23.916666 -21.014079 -3.498919 -0.000001 -0.000003 3.819489 30.948284 10.341874 -19.656803 0.000001 -0.000001 4.004301 -15.814207 4.422544 49.315550 0.000001 1.362270 0.590317 0.000003 0.000001 0.000004 
-1.177518 1.838294 -7.609241 9.101166 1.324974 0.213958 0.000000 0.000000 -0.744707 -17.686643 -4.520190 2.106318 0.000000 0.000000 -2.032238 6.009090 12.266021 0.299191 0.000000 0.000000 -2.213878 12.521244 0.849007 -3.649945 0.000000 0.181638 -1.407682 0.981531 -7.493242 -4.688883 0.365767 -0.048012 -1.787590 -8.736887 21.095345 0.357135 1.305161 0.000000 0.000001 -9.315567 -3.715590 12.305026 2.559211 -0.000001 -0.000001 -5.869192 -2.176755 -0.686296 2.378451 -0.000000 -0.000001 -6.535334 -3.870706 -19.907952 -0.360721 -0.048012 -1.787589 1.121125 -16.861389 5.778245 -1.305160 0.000001 0.000002 37.598497 -0.041764 -26.436806 -2.559211 -0.000000 0.000002 -31.961522 -29.710824 -91.919019 -2.378451 0.000001 -0.000004 5.658659 -47.302461 15.744175 0.908180 0.000000 0.000000 -18.548142 17.106171 -10.339756 -0.000000 -0.000002 3.819488 22.618537 -1.860032 -3.686516 -0.000000 -0.000003 4.004302 -1.929853 -8.641928 -18.279403 -0.000000 1.362270 0.590316 0.000002 0.000001 0.000009 -0.908180 -0.000000 0.000001 -23.941358 -21.011088 -3.496309 0.000000 -0.000004 3.819489 30.998178 10.333771 -19.669773 0.000001 -0.000001 4.004300 -15.839159 4.431863 49.320472 -0.000000 1.362269 0.590316 0.000000 -0.000000 0.000005 
-1.178143 1.838342 -7.609079 9.091225 1.325513 0.215421 -0.000000 0.000000 -0.744706 -17.687615 -4.511235 2.103291 0.000000 0.000001 -2.032237 6.020565 12.249413 0.297425 0.000000 0.000001 -2.213882 12.514043 0.888022 -3.676905 0.000000 0.181636 -1.407681 0.967602 -7.533719 -4.723373 0.365767 -0.048012 -1.787593 -8.736076 21.098958 0.358576 1.305161 0.000000 -0.000003 -9.293668 -3.721854 12.299640 2.559210 -0.000002 -0.000001 -5.874714 -2.157021 -0.674643 2.378448 0.000001 0.000003 -6.539953 -3.862850 -19.911422 -0.360721 -0.048012 -1.787591 1.125454 -16.861000 5.778493 -1.305160 0.000001 -0.000001 37.580585 -0.027718 -26.440386 -2.559211 -0.000000 -0.000000 -31.954938 -29.733309 -91.904553 -2.378449 -0.000000 -0.000000 5.705134 -47.316795 15.792939 0.908180 0.000000 -0.000000 -18.535397 17.110271 -10.348586 -0.000000 -0.000003 3.819490 22.615405 -1.856816 -3.681644 -0.000001 -0.000001 4.004303 -1.929290 -8.645392 -18.273664 -0.000000 1.362269 0.590317 0.000003 -0.000002 0.000009 -0.908180 0.000000 0.000001 -23.931460 -21.008748 -3.476175 -0.000000 -0.000002 3.819489 31.000565 10.324216 -19.663215 0.000001 -0.000001 4.004301 -15.840713 4.428387 49.290490 -0.000000 1.362270 0.590317 0.000004 -0.000001 0.000008 
